<svg xmlns="http://www.w3.org/2000/svg" xmlns:xlink="http://www.w3.org/1999/xlink" width="32" height="32" viewBox="0 0 32 32"><defs><path id="z8rha" d="M582 2565.45c0 .86-.67 1.55-1.5 1.55h-29c-.83 0-1.5-.7-1.5-1.55 0 0 0-5.65 4-7.7 2.52-1.3 1.55-.24 4.65-1.57 3.1-1.33 3.84-1.79 3.84-1.79l.03-3.06s-1.16-.91-1.53-3.8c-.72.22-.96-.87-1-1.57-.04-.68-.43-2.79.46-2.6-.18-1.4-.31-2.68-.25-3.35.22-2.36 2.43-4.83 5.82-5.01 4 .18 5.58 2.65 5.8 5 .07.68-.08 1.95-.26 3.36.89-.19.5 1.92.46 2.6-.04.7-.29 1.79-1.01 1.57-.36 2.88-1.52 3.79-1.52 3.79l.02 3.04s.74.43 3.84 1.76c3.1 1.33 2.13.34 4.66 1.63 3.99 2.05 3.99 7.7 3.99 7.7z"/></defs><g><g transform="translate(-550 -2535)"><use fill="#e3e9ea" xlink:href="#z8rha"/></g></g></svg>