<svg xmlns="http://www.w3.org/2000/svg" xmlns:xlink="http://www.w3.org/1999/xlink" width="44" height="44" viewBox="0 0 44 44"><defs><path id="30bka" d="M1125.9 1018.5a3.65 3.65 0 0 1-3.63 3.67c-2 0-3.63-1.64-3.63-3.67a3.65 3.65 0 0 1 3.63-3.67c2.01 0 3.64 1.65 3.64 3.67zm-1.8 0a1.83 1.83 0 0 0-3.64 0c0 1.01.8 1.83 1.81 1.83 1 0 1.82-.82 1.82-1.83zm12.72 0a3.65 3.65 0 0 1-3.64 3.67c-2 0-3.63-1.64-3.63-3.67a3.65 3.65 0 0 1 3.63-3.67c2.01 0 3.64 1.65 3.64 3.67zm-1.82 0c0-1.01-.81-1.83-1.82-1.83-1 0-1.82.82-1.82 1.83 0 1.01.82 1.83 1.82 1.83s1.82-.82 1.82-1.83zm12.73 0a3.65 3.65 0 0 1-3.64 3.67c-2 0-3.64-1.64-3.64-3.67a3.65 3.65 0 0 1 3.64-3.67c2 0 3.64 1.65 3.64 3.67zm-1.82 0c0-1.01-.82-1.83-1.82-1.83s-1.82.82-1.82 1.83c0 1.01.82 1.83 1.82 1.83s1.82-.82 1.82-1.83zm9.09-11v22c0 3.04-2.44 5.5-5.46 5.5h-9.09l-16.36 11 3.64-11h-10.91a5.48 5.48 0 0 1-5.46-5.5v-22c0-3.04 2.45-5.5 5.46-5.5h32.72a5.48 5.48 0 0 1 5.46 5.5zm-1.82 0a3.65 3.65 0 0 0-3.64-3.67h-32.72c-2.01 0-3.64 1.65-3.64 3.67v22a3.65 3.65 0 0 0 3.64 3.67h13.63l-3.63 9.16 12.73-9.16h10c2 0 3.63-1.64 3.63-3.67z"/></defs><g><g transform="translate(-1111 -1002)"><use fill="#00aeef" xlink:href="#30bka"/></g></g></svg>