<svg xmlns="http://www.w3.org/2000/svg" xmlns:xlink="http://www.w3.org/1999/xlink" width="47" height="33" viewBox="0 0 47 33"><defs><path id="92lpa" d="M860 1031.4c0 3.64-3 6.6-6.71 6.6h-28.54a11.65 11.65 0 0 1-11.75-11.55c0-4.65 2.8-8.64 6.82-10.48-.04-.35-.1-.7-.1-1.07 0-5.47 4.5-9.9 10.07-9.9 4.14 0 7.7 2.46 9.24 5.98a12.73 12.73 0 0 1 5.02-1.03c6.96 0 12.6 5.54 12.6 12.37 0 1.1-.17 2.16-.44 3.17a6.57 6.57 0 0 1 3.79 5.91zm-1.68 0a4.9 4.9 0 0 0-2.84-4.43l-1.24-.6.35-1.3c.25-.93.37-1.85.37-2.75 0-5.9-4.89-10.72-10.9-10.72-1.51 0-2.98.3-4.36.9l-1.54.66-.67-1.52a8.4 8.4 0 0 0-7.7-4.99c-4.63 0-8.4 3.7-8.4 8.25 0 .18.03.35.06.53l.04.37.13 1.17-1.09.5a9.92 9.92 0 0 0-5.85 8.98 10 10 0 0 0 10.07 9.9h28.54a5 5 0 0 0 5.03-4.95z"/></defs><g><g transform="translate(-813 -1005)"><use fill="#fff" xlink:href="#92lpa"/></g></g></svg>