<svg xmlns="http://www.w3.org/2000/svg" xmlns:xlink="http://www.w3.org/1999/xlink" width="44" height="41" viewBox="0 0 44 41"><defs><path id="r3vqa" d="M257.64 1011.17v27.5a3.65 3.65 0 0 1-3.64 3.66h-36.36c-2.01 0-3.64-1.64-3.64-3.66v-27.5a3.65 3.65 0 0 1 3.64-3.67H254c2 0 3.64 1.64 3.64 3.67zm-1.82 20.16h-40v7.34c0 1 .81 1.83 1.82 1.83H254c1 0 1.82-.82 1.82-1.83zm0-11h-40v9.17h40zm0-9.16c0-1.02-.82-1.84-1.82-1.84h-36.36c-1 0-1.82.82-1.82 1.84v7.33h40zm-25.46-5.5h-1.81a3.65 3.65 0 0 1 3.63-3.67h7.27c2.01 0 3.64 1.64 3.64 3.67h-1.82c0-1.02-.81-1.84-1.82-1.84h-7.27c-1 0-1.82.82-1.82 1.84z"/></defs><g><g transform="translate(-214 -1002)"><use fill="#fff" xlink:href="#r3vqa"/></g></g></svg>