<svg xmlns="http://www.w3.org/2000/svg" xmlns:xlink="http://www.w3.org/1999/xlink" width="45" height="44" viewBox="0 0 45 44"><defs><path id="uf5ca" d="M530.6 1022.62l11.67-11.2-3.79 15.79a4.53 4.53 0 0 1-6.2 1.68 4.6 4.6 0 0 1-1.67-6.27zm2.58 4.68c1.24.72 2.8.35 3.6-.81l2.27-9.44-6.97 6.7a2.76 2.76 0 0 0 1.1 3.55zm23.18-3.3c0 12.15-9.76 22-21.81 22a21.91 21.91 0 0 1-21.82-22c0-12.15 9.77-22 21.82-22a21.91 21.91 0 0 1 21.81 22zm-1.84.92h-3.61v-1.84h3.6a20.15 20.15 0 0 0-5.2-12.66l-2.55 2.56-1.29-1.3 2.55-2.56a19.82 19.82 0 0 0-12.57-5.26v3.64h-1.81v-3.64a19.82 19.82 0 0 0-12.57 5.26l2.55 2.56-1.29 1.3-2.54-2.56a20.15 20.15 0 0 0-5.2 12.66h3.6v1.84h-3.62a20.07 20.07 0 0 0 19.98 19.25c10.74 0 19.5-8.54 19.97-19.25z"/></defs><g><g transform="translate(-512 -1002)"><use fill="#00aeef" xlink:href="#uf5ca"/></g></g></svg>